<svg xmlns:xlink="http://www.w3.org/1999/xlink" xmlns="http://www.w3.org/2000/svg" width="79.343" height="84.019" viewBox="0 0 79.343 84.019" class="swiper-slide-icon"><g id="Group_21270" data-name="Group 21270" transform="translate(-354.969 -2485.583)"><g id="页面1" transform="translate(361.869 2487.832)"><g id="_1_未登录" data-name="1_未登录" transform="translate(-5.258 -2.249)"><g id="编组-7" transform="translate(0 0)"><g id="编组备份" transform="translate(0 0)"><g id="Group-6" transform="translate(0 0)"><g id="分组" transform="translate(0 0)"><path id="合并形状-copy-2" d="M2.553,30.776a24.9,24.9,0,0,0,6.33.813A25.189,25.189,0,0,0,33.953,6.282V3.848h2.435A38.337,38.337,0,1,1-1.642,42.183,38.688,38.688,0,0,1-.424,32.524l.61-2.369Z" transform="translate(1.642 1.859)" fill="#FFFFFF" stroke="#FFFFFF" stroke-width="3.283px" fill-rule="evenodd"></path><path id="_1" data-name="1" d="M14.653,0l-4.2,22.419H6.782L10.155,4.471,5.361,8.155l.829-4.5L10.984,0Z" transform="translate(5.025 0)" fill="#FFFFFF"></path></g></g></g></g></g></g><g id="skill" transform="translate(370 2512.416)"><path id="Path_35025" data-name="Path 35025" d="M10.275,5.284c9.074,0,15.306-4.7,19.678-4.7S43.509,3.1,43.509,23.213,31.155,46.279,26.346,46.279C3.825,46.281-5.8,5.284,10.275,5.284Z" transform="translate(0.09)" fill="#EFEFEF"></path><g id="Group_21244" data-name="Group 21244" transform="translate(33.355 24.623)"><path id="Path_35026" data-name="Path 35026" d="M0,0H2.624V1.312H0Z" transform="translate(5.335 1.855) rotate(-45)" fill="#A4AFC1"></path><path id="Path_35027" data-name="Path 35027" d="M0,0H2.624V1.312H0Z" transform="translate(0 7.188) rotate(-45)" fill="#A4AFC1"></path><path id="Path_35028" data-name="Path 35028" d="M0,0H1.312V2.624H0Z" transform="translate(5.333 6.02) rotate(-45)" fill="#A4AFC1"></path></g><path id="Path_35029" data-name="Path 35029" d="M16.755,8.062A1.316,1.316,0,0,1,18.067,6.75h2.65a2.624,2.624,0,1,0,4.539,0h2.65a1.316,1.316,0,0,1,1.312,1.312v2.65a2.624,2.624,0,1,1,0,4.539V17.9a1.316,1.316,0,0,1-1.312,1.312H18.045A1.312,1.312,0,0,1,16.733,17.9Z" transform="translate(4.595 1.923)" fill="#2FDF84"></path><circle id="Ellipse_2092" data-name="Ellipse 2092" cx="4.264" cy="4.264" r="4.264" transform="translate(13.479 16.544)" fill="#F3F3F1"></circle><path id="Path_35030" data-name="Path 35030" d="M25.772,32.261V28a5.246,5.246,0,0,0-5.248-5.248H12A5.246,5.246,0,0,0,6.75,28v4.264Z" transform="translate(1.481 6.913)" fill="#F3F3F1"></path><path id="Path_35031" data-name="Path 35031" d="M19.685,17.9l.022-9.835a1.3,1.3,0,0,1,.983-1.245c.012-.021.016-.046.028-.067h-2.65a1.316,1.316,0,0,0-1.312,1.312L16.733,17.9a1.311,1.311,0,0,0,1.312,1.316H21A1.312,1.312,0,0,1,19.685,17.9Z" transform="translate(4.595 1.923)" fill="#00B871"></path><path id="Path_35032" data-name="Path 35032" d="M13.7,17.014a4.253,4.253,0,0,1,2.788-3.985,4.264,4.264,0,1,0,0,7.971A4.253,4.253,0,0,1,13.7,17.014Z" transform="translate(2.729 3.794)" fill="#D5DBE1"></path><path id="Path_35033" data-name="Path 35033" d="M14.949,22.75H12A5.246,5.246,0,0,0,6.75,28v4.264H9.7V28A5.246,5.246,0,0,1,14.949,22.75Z" transform="translate(1.481 6.913)" fill="#D5DBE1"></path><path id="Path_35034" data-name="Path 35034" d="M28.135,20.431H21.221V18.463h6.914a.332.332,0,0,0,.328-.328v-2.65a.983.983,0,0,1,1.481-.849,1.64,1.64,0,1,0,0-2.842.983.983,0,0,1-1.481-.849V8.3a.332.332,0,0,0-.328-.328H26.807c.01.109.016.219.016.328a3.608,3.608,0,1,1-7.215,0c0-.109.005-.219.016-.328H18.3a.332.332,0,0,0-.328.328V11.9H16V8.3A2.3,2.3,0,0,1,18.3,6h2.65a.984.984,0,0,1,.849,1.481,1.64,1.64,0,1,0,2.842,0A.984.984,0,0,1,25.485,6h2.65a2.3,2.3,0,0,1,2.3,2.3V9.622a3.608,3.608,0,1,1,0,7.186v1.326A2.3,2.3,0,0,1,28.135,20.431Z" transform="translate(4.366 1.689)"></path><path id="Path_35035" data-name="Path 35035" d="M15.248,22.5A5.248,5.248,0,1,1,20.5,17.248,5.253,5.253,0,0,1,15.248,22.5Zm0-8.527a3.28,3.28,0,1,0,3.28,3.28A3.283,3.283,0,0,0,15.248,13.968Z" transform="translate(2.495 3.56)"></path><path id="Path_35036" data-name="Path 35036" d="M26.99,32.5H25.022V28.231a4.269,4.269,0,0,0-4.264-4.264H12.231a4.269,4.269,0,0,0-4.264,4.264V32.5H6V28.231A6.239,6.239,0,0,1,12.231,22h8.527a6.239,6.239,0,0,1,6.231,6.231Z" transform="translate(1.248 6.679)"></path><path id="Path_35037" data-name="Path 35037" d="M2,28.5H43.98v1.968H2Z" transform="translate(0 8.706)"></path></g></g></svg>