<svg xmlns:xlink="http://www.w3.org/1999/xlink" xmlns="http://www.w3.org/2000/svg" width="81.189" height="86.019" viewBox="0 0 81.189 86.019" class="swiper-slide-icon"><g id="Group_21271" data-name="Group 21271" transform="translate(-555.047 -2483.583)"><g id="页面1" transform="translate(554.33 2483.583)"><g id="_1_未登录" data-name="1_未登录" transform="translate(2.358 0)"><g id="编组-7" transform="translate(0)"><g id="编组备份"><g id="Group-6-Copy-3"><g id="分组-2"><path id="合并形状-copy" d="M2.654,31.43a25.5,25.5,0,0,0,6.484.833A25.8,25.8,0,0,0,34.817,6.341V3.848h2.494A39.267,39.267,0,1,1-1.642,43.114,39.627,39.627,0,0,1-.394,33.22l.625-2.426Z" transform="translate(1.642 1.997)" fill="#FFFFFF" stroke="#FFFFFF" stroke-width="3.283px" fill-rule="evenodd"></path><path id="_2" data-name="2" d="M19.806,5.661c0,3.1-2.069,4.957-3.355,6.3L9.3,19.413h8.215l-.721,3.55H3.627l.721-3.55L14.005,9.4c1.286-1.343,1.881-2.175,1.881-3.55a2.022,2.022,0,0,0-2.132-2.3c-1.411,0-2.728.768-3.23,2.974H6.605C7.358,2.175,10.086,0,14.162,0,17.643,0,19.806,2.047,19.806,5.661Z" transform="translate(4.377)" fill="#FFFFFF"></path></g></g></g></g></g></g><g id="increase" transform="translate(571.916 2511.971)"><g id="Group_21245" data-name="Group 21245" transform="translate(2.384 0.583)"><path id="Path_35038" data-name="Path 35038" d="M35.847,41.978c-9.163,0-15.455,4.746-19.87,4.746S2.29,44.186,2.29,23.876,14.764.583,19.62.583C42.361.583,52.074,41.978,35.847,41.978Z" transform="translate(-2.29 -0.583)" fill="#EFEFEF" opacity="0.715"></path></g><g id="Group_21246" data-name="Group 21246" transform="translate(35.116 3.785)"><path id="Path_35039" data-name="Path 35039" d="M28.987,6.974a1.987,1.987,0,1,1,1.987-1.987A1.989,1.989,0,0,1,28.987,6.974Zm0-2.649a.662.662,0,1,0,.662.662A.663.663,0,0,0,28.987,4.325Z" transform="translate(-27 -3)" fill="#A4AFC1"></path></g><g id="Group_21247" data-name="Group 21247" transform="translate(9.617 27.297)"><path id="Path_35040" data-name="Path 35040" d="M13.711,32.009H7.75v-10.6a.663.663,0,0,1,.662-.662h4.636a.663.663,0,0,1,.662.662Z" transform="translate(-7.75 -20.75)" fill="#F3F3F1"></path></g><g id="Group_21248" data-name="Group 21248" transform="translate(20.214 21.999)"><path id="Path_35041" data-name="Path 35041" d="M21.711,33.308H15.75v-15.9a.663.663,0,0,1,.662-.662h4.636a.663.663,0,0,1,.662.662Z" transform="translate(-15.75 -16.75)" fill="#F3F3F1"></path></g><g id="Group_21249" data-name="Group 21249" transform="translate(30.811 16.7)"><path id="Path_35042" data-name="Path 35042" d="M29.711,34.607H23.75V13.412a.663.663,0,0,1,.662-.662h4.636a.663.663,0,0,1,.662.662Z" transform="translate(-23.75 -12.75)" fill="#2FDF84"></path></g><g id="Group_21250" data-name="Group 21250" transform="translate(9.617 27.297)"><path id="Path_35043" data-name="Path 35043" d="M11.393,20.75H8.412a.663.663,0,0,0-.662.662v10.6h2.98v-10.6A.663.663,0,0,1,11.393,20.75Z" transform="translate(-7.75 -20.75)" fill="#D5DBE1"></path></g><g id="Group_21251" data-name="Group 21251" transform="translate(20.214 21.999)"><path id="Path_35044" data-name="Path 35044" d="M19.393,16.75h-2.98a.663.663,0,0,0-.662.662v15.9h2.98v-15.9A.663.663,0,0,1,19.393,16.75Z" transform="translate(-15.75 -16.75)" fill="#D5DBE1"></path></g><g id="Group_21252" data-name="Group 21252" transform="translate(30.811 16.7)"><path id="Path_35045" data-name="Path 35045" d="M27.393,12.75h-2.98a.663.663,0,0,0-.662.662V34.607h2.98V13.412A.663.663,0,0,1,27.393,12.75Z" transform="translate(-23.75 -12.75)" fill="#00B871"></path></g><g id="Group_21253" data-name="Group 21253" transform="translate(10.236 9.375)"><path id="Path_35046" data-name="Path 35046" d="M0,0H15.924V1.987H0Z" transform="translate(0 11.258) rotate(-45)"></path></g><g id="Group_21254" data-name="Group 21254" transform="translate(16.571 9.083)"><path id="Path_35047" data-name="Path 35047" d="M19.623,13.623H17.636V8.987H13V7h5.63a.994.994,0,0,1,.993.993Z" transform="translate(-13 -7)"></path></g><g id="Group_21255" data-name="Group 21255" transform="translate(2 37.563)"><path id="Path_35048" data-name="Path 35048" d="M2,28.5H44.389v1.987H2Z" transform="translate(-2 -28.5)"></path></g><g id="Group_21256" data-name="Group 21256" transform="translate(8.623 26.304)"><path id="Path_35049" data-name="Path 35049" d="M13.954,33.246H7.993A.994.994,0,0,1,7,32.253v-10.6A1.658,1.658,0,0,1,8.656,20h4.636a1.658,1.658,0,0,1,1.656,1.656v10.6A.994.994,0,0,1,13.954,33.246ZM8.987,31.259h3.974V21.987H8.987Z" transform="translate(-7 -20)"></path></g><g id="Group_21257" data-name="Group 21257" transform="translate(19.22 21.005)"><path id="Path_35050" data-name="Path 35050" d="M21.954,34.545H15.993A.994.994,0,0,1,15,33.552v-15.9A1.658,1.658,0,0,1,16.656,16h4.636a1.658,1.658,0,0,1,1.656,1.656v15.9A.994.994,0,0,1,21.954,34.545Zm-4.967-1.987h3.974V17.987H16.987Z" transform="translate(-15 -16)"></path></g><g id="Group_21258" data-name="Group 21258" transform="translate(29.818 15.706)"><path id="Path_35051" data-name="Path 35051" d="M29.954,35.844H23.993A.994.994,0,0,1,23,34.85V13.656A1.658,1.658,0,0,1,24.656,12h4.636a1.658,1.658,0,0,1,1.656,1.656V34.85A.994.994,0,0,1,29.954,35.844Zm-4.967-1.987h3.974V13.987H24.987Z" transform="translate(-23 -12)"></path></g></g></g></svg>