<svg xmlns:xlink="http://www.w3.org/1999/xlink" xmlns="http://www.w3.org/2000/svg" width="80.96" height="85.92" viewBox="0 0 80.96 85.92" class="swiper-slide-icon"><g id="Group_21272" data-name="Group 21272" transform="translate(-760.16 -2483.682)"><g id="页面1" transform="translate(759.443 2483.682)"><g id="_1_未登录" data-name="1_未登录" transform="translate(2.358 0)"><g id="编组-7" transform="translate(0)"><g id="编组备份"><g id="Group-6-Copy-4" transform="translate(0)"><g id="分组-3" transform="translate(0 0)"><path id="合并形状" d="M2.642,31.447a25.424,25.424,0,0,0,6.465.83A25.725,25.725,0,0,0,34.71,6.433V3.946H37.2A39.152,39.152,0,1,1-1.642,43.1,39.51,39.51,0,0,1-.4,33.232l.623-2.419Z" transform="translate(1.642 2.031)" fill="#FFFFFF" stroke="#FFFFFF" stroke-width="3.283px" fill-rule="evenodd"></path><path id="_3" data-name="3" d="M18.81,5.345A6.25,6.25,0,0,1,15.39,11.2c1.38.791,1.976,1.929,1.976,4.016a7.46,7.46,0,0,1-7.4,7.685c-3.921,0-6.337-2.119-6.337-5.345a6.969,6.969,0,0,1,.094-1.138H7.548a4.394,4.394,0,0,0-.063.7,2.224,2.224,0,0,0,2.51,2.277c1.976,0,3.482-1.9,3.482-4.016a2.256,2.256,0,0,0-2.51-2.467h-.6l.659-3.415h.627a3.581,3.581,0,0,0,3.262-3.7,2.032,2.032,0,0,0-2.1-2.277,3.353,3.353,0,0,0-3.2,2.751H5.7C6.669,1.992,9.43,0,13.351,0A5.185,5.185,0,0,1,18.81,5.345Z" transform="translate(4.353 0)" fill="#FFFFFF"></path></g></g></g></g></g></g><g id="money" transform="translate(778 2511.971)"><g id="Group_21228" data-name="Group 21228" transform="translate(2.369 0.583)"><path id="Path_35009" data-name="Path 35009" d="M10.028,40.308c8.793,0,14.831,4.555,19.068,4.555s13.135-2.436,13.135-21.927S30.26.583,25.6.583C3.777.583-5.544,40.308,10.028,40.308Z" transform="translate(-2.29 -0.583)" fill="#EFEFEF"></path></g><g id="Group_21229" data-name="Group 21229" transform="translate(7.085 7.469)"><path id="Path_35010" data-name="Path 35010" d="M7.907,9.814A1.907,1.907,0,1,1,9.814,7.907,1.909,1.909,0,0,1,7.907,9.814Zm0-2.542a.636.636,0,1,0,.636.636A.637.637,0,0,0,7.907,7.271Z" transform="translate(-6 -6)" fill="#A4AFC1"></path></g><g id="Group_21230" data-name="Group 21230" transform="translate(15.665 8.422)"><path id="Path_35011" data-name="Path 35011" d="M25.78,12.47c4.4,2.581,7.945,9.928,7.945,15.254,0,3.814-1.907,7.627-6.356,7.627H19.106c-4.449,0-6.356-3.814-6.356-7.627,0-5.326,3.547-12.674,7.945-15.254L16.538,9.013a1.27,1.27,0,0,1,.788-2.263H29.148a1.27,1.27,0,0,1,.788,2.263Z" transform="translate(-12.75 -6.75)" fill="#F3F3F1"></path></g><g id="Group_21231" data-name="Group 21231" transform="translate(15.665 8.422)"><path id="Path_35012" data-name="Path 35012" d="M15.61,27.725c0-5.326,3.547-12.674,7.945-15.254L19.4,9.013a1.27,1.27,0,0,1,.788-2.263h-2.86a1.27,1.27,0,0,0-.788,2.263l4.157,3.458C16.3,15.051,12.75,22.4,12.75,27.725c0,3.814,1.907,7.627,6.356,7.627h2.86C17.517,35.352,15.61,31.538,15.61,27.725Z" transform="translate(-12.75 -6.75)" fill="#D5DBE1"></path></g><g id="Group_21232" data-name="Group 21232" transform="translate(18.018 7.469)"><path id="Path_35013" data-name="Path 35013" d="M25.709,13.419l-1.192-1.49,4.321-3.458a.3.3,0,0,0,.1-.352.291.291,0,0,0-.294-.212H16.824a.291.291,0,0,0-.294.212.3.3,0,0,0,.1.351l4.322,3.459-1.192,1.49L15.441,9.961A2.223,2.223,0,0,1,16.824,6H28.648a2.224,2.224,0,0,1,1.381,3.962Z" transform="translate(-14.601 -6)"></path></g><g id="Group_21233" data-name="Group 21233" transform="translate(18.525 13.189)"><path id="Path_35014" data-name="Path 35014" d="M15,10.5H30.254v1.907H15Z" transform="translate(-15 -10.5)"></path></g><g id="Group_21234" data-name="Group 21234" transform="translate(19.442 13.319)"><path id="Path_35015" data-name="Path 35015" d="M26.563,35.26H17.982a7.351,7.351,0,0,1-2.261-.338l.589-1.815a5.393,5.393,0,0,0,1.673.245h8.581c3.988,0,5.4-3.595,5.4-6.674,0-5.258-3.563-12.137-7.475-14.433l.966-1.644c4.482,2.633,8.415,10.144,8.415,16.078C33.872,30.95,31.612,35.26,26.563,35.26Z" transform="translate(-15.721 -10.602)"></path></g><g id="Group_21235" data-name="Group 21235" transform="translate(22.975 22.088)"><path id="Path_35016" data-name="Path 35016" d="M22.161,26.4H18.5V24.492h3.661a.795.795,0,0,0,0-1.589h-.966a2.7,2.7,0,0,1,0-5.4h3.661v1.907H21.195a.795.795,0,0,0,0,1.589h.966a2.7,2.7,0,0,1,0,5.4Z" transform="translate(-18.5 -17.5)"></path></g><g id="Group_21236" data-name="Group 21236" transform="translate(25.199 20.181)"><path id="Path_35017" data-name="Path 35017" d="M20.25,16h1.907v3.814H20.25Z" transform="translate(-20.25 -16)"></path></g><g id="Group_21237" data-name="Group 21237" transform="translate(25.199 29.079)"><path id="Path_35018" data-name="Path 35018" d="M20.25,23h1.907v3.814H20.25Z" transform="translate(-20.25 -23)"></path></g><g id="Group_21238" data-name="Group 21238" transform="translate(2 36.071)"><path id="Path_35019" data-name="Path 35019" d="M2,28.5H42.678v1.907H2Z" transform="translate(-2 -28.5)"></path></g><g id="Group_21239" data-name="Group 21239" transform="translate(8.038 18.592)"><path id="Path_35020" data-name="Path 35020" d="M14.695,17.928h3.814V14.75H14.059a7.309,7.309,0,1,0,0,14.619h4.449V26.191H14.695a4.131,4.131,0,1,1,0-8.263Z" transform="translate(-6.75 -14.75)" fill="#2FDF84"></path></g><g id="Group_21240" data-name="Group 21240" transform="translate(8.038 18.592)"><path id="Path_35021" data-name="Path 35021" d="M9.61,22.059A7.309,7.309,0,0,1,16.92,14.75h-2.86a7.309,7.309,0,1,0,0,14.619h2.86A7.309,7.309,0,0,1,9.61,22.059Z" transform="translate(-6.75 -14.75)" fill="#00B871"></path></g><g id="Group_21241" data-name="Group 21241" transform="translate(7.085 17.639)"><path id="Path_35022" data-name="Path 35022" d="M19.03,30.525H14.263a8.263,8.263,0,1,1,0-16.525H19.03a.954.954,0,0,1,.953.953v3.178a.954.954,0,0,1-.953.953H14.9a3.178,3.178,0,1,0,0,6.356H19.03a.954.954,0,0,1,.953.953v3.178A.954.954,0,0,1,19.03,30.525ZM14.263,15.907a6.356,6.356,0,0,0,0,12.712h3.814V27.347H14.9a5.085,5.085,0,0,1,0-10.17h3.178V15.907Z" transform="translate(-6 -14)"></path></g><g id="Group_21242" data-name="Group 21242" transform="translate(15.347 18.592)"><path id="Path_35023" data-name="Path 35023" d="M12.5,14.75h1.907v3.178H12.5Z" transform="translate(-12.5 -14.75)"></path></g><g id="Group_21243" data-name="Group 21243" transform="translate(15.347 30.033)"><path id="Path_35024" data-name="Path 35024" d="M12.5,23.75h1.907v3.178H12.5Z" transform="translate(-12.5 -23.75)"></path></g></g></g></svg>