<svg xmlns:xlink="http://www.w3.org/1999/xlink" xmlns="http://www.w3.org/2000/svg" width="17.281" height="17.281" viewBox="0 0 56.602 61.9"><g id="bell" transform="translate(-3.699 -1)"><path id="Path_35094" data-name="Path 35094" d="M57.2,39.5c-2-2.2-4.2-4.7-4.2-9.5V21.8C53,10.7,43.2,1,32,1S11,10.8,11,22v8c0,4.8-2.2,7.3-4.2,9.5C5.2,41.3,3.7,43,3.7,45.6c0,5.5,11.4,9.2,28.3,9.2s28.3-3.7,28.3-9.2C60.3,43.1,58.8,41.3,57.2,39.5Z" fill="#FFFFFF"></path> <path id="Path_35095" data-name="Path 35095" d="M32,56.8a81.35,81.35,0,0,1-8.8-.4A9.062,9.062,0,0,0,32,62.9a9.181,9.181,0,0,0,8.8-6.5A81.35,81.35,0,0,1,32,56.8Z" fill="#FFFFFF"></path></g></svg>