<svg xmlns:xlink="http://www.w3.org/1999/xlink" data-v-7a073fd5="" xmlns="http://www.w3.org/2000/svg" width="18" height="13.543" viewBox="0 0 18 13.543"><g data-v-7a073fd5="" id="preview" transform="translate(-734.025 -2)" opacity="0.5"><path data-v-7a073fd5="" id="Path_30402" data-name="Path 30402" d="M9.025,15.543c4.063,0,7.223-3.5,8.577-5.53a2.2,2.2,0,0,0,0-2.6C16.248,5.5,13.088,2,9.025,2S1.8,5.5.448,7.53a2.031,2.031,0,0,0,0,2.483C1.8,12.044,4.962,15.543,9.025,15.543Zm0-10.157a3.325,3.325,0,0,1,3.386,3.386,3.325,3.325,0,0,1-3.386,3.386A3.325,3.325,0,0,1,5.64,8.771,3.325,3.325,0,0,1,9.025,5.386Z" transform="translate(734)" fill="#FFFFFF"></path></g></svg>