<svg width="38" height="21" viewBox="0 0 38 21" fill="none" xmlns="http://www.w3.org/2000/svg">
<path d="M35 0H3C1.34315 0 0 1.34315 0 3V18C0 19.6569 1.34315 21 3 21H35C36.6569 21 38 19.6569 38 18V3C38 1.34315 36.6569 0 35 0Z" fill="#0093E9"/>
<path d="M12.5579 16.831L7.78491 12.054L9.08491 10.754L12.9949 13.361L22.1209 2.93103L23.4209 3.58303L14.5419 16.658C14.4326 16.8133 14.2906 16.9427 14.1259 17.0372C13.9612 17.1317 13.7778 17.189 13.5886 17.205C13.3994 17.221 13.209 17.1954 13.0307 17.1299C12.8525 17.0644 12.6908 16.9607 12.5569 16.826L12.5579 16.831Z" fill="#FEFEFE"/>
<path d="M27.9859 6.83801H24.7279C24.6383 6.84505 24.5482 6.83347 24.4632 6.80399C24.3782 6.77452 24.3003 6.72779 24.2343 6.66675C24.1683 6.6057 24.1156 6.53166 24.0795 6.44927C24.0435 6.36688 24.0249 6.27793 24.0249 6.18801C24.0249 6.09809 24.0435 6.00914 24.0795 5.92675C24.1156 5.84436 24.1683 5.77032 24.2343 5.70928C24.3003 5.64823 24.3782 5.6015 24.4632 5.57203C24.5482 5.54255 24.6383 5.53097 24.7279 5.53801H27.9859C28.0756 5.53097 28.1657 5.54255 28.2507 5.57203C28.3356 5.6015 28.4136 5.64823 28.4796 5.70928C28.5456 5.77032 28.5983 5.84436 28.6343 5.92675C28.6704 6.00914 28.689 6.09809 28.689 6.18801C28.689 6.27793 28.6704 6.36688 28.6343 6.44927C28.5983 6.53166 28.5456 6.6057 28.4796 6.66675C28.4136 6.72779 28.3356 6.77452 28.2507 6.80399C28.1657 6.83347 28.0756 6.84505 27.9859 6.83801Z" fill="#FEFEFE"/>
<path d="M27.985 11.399H22.121C21.9574 11.3862 21.8047 11.3122 21.6933 11.1917C21.5819 11.0712 21.52 10.9131 21.52 10.749C21.52 10.585 21.5819 10.4269 21.6933 10.3064C21.8047 10.1859 21.9574 10.1119 22.121 10.099H27.986C28.0756 10.092 28.1658 10.1036 28.2507 10.1331C28.3357 10.1625 28.4136 10.2093 28.4796 10.2703C28.5457 10.3314 28.5984 10.4054 28.6344 10.4878C28.6704 10.5702 28.689 10.6591 28.689 10.749C28.689 10.839 28.6704 10.9279 28.6344 11.0103C28.5984 11.0927 28.5457 11.1667 28.4796 11.2278C28.4136 11.2888 28.3357 11.3356 28.2507 11.365C28.1658 11.3945 28.0746 11.4061 27.985 11.399Z" fill="#FEFEFE"/>
<path d="M27.9849 15.96H18.8629C18.6993 15.9472 18.5466 15.8731 18.4352 15.7527C18.3238 15.6322 18.262 15.4741 18.262 15.31C18.262 15.1459 18.3238 14.9879 18.4352 14.8674C18.5466 14.7469 18.6993 14.6729 18.8629 14.66H27.9859C28.1495 14.6729 28.3022 14.7469 28.4136 14.8674C28.525 14.9879 28.5869 15.1459 28.5869 15.31C28.5869 15.4741 28.525 15.6322 28.4136 15.7527C28.3022 15.8731 28.1485 15.9472 27.9849 15.96Z" fill="#FEFEFE"/>
</svg>
