<svg data-v-7a073fd5="" version="1.1" width="19" height="19" xmlns="http://www.w3.org/2000/svg" xmlns:xlink="http://www.w3.org/1999/xlink" x="0px" y="0px" viewBox="0 0 19 19" xml:space="preserve"><g data-v-7a073fd5="" id="sound" transform="translate(0.5 -0.5)" opacity="0.5"><g data-v-7a073fd5="" id="Path_30736" fill="#ACADAF"><path data-v-7a073fd5="" d="M13.7,19.3c-0.2,0-0.4-0.1-0.6-0.2l-6.9-4.6H0.5c-0.6,0-1-0.4-1-1V6.3c0-0.6,0.4-1,1-1h5.7l6.9-4.6
                                        c0.3-0.2,0.7-0.2,1,0c0.3,0.2,0.5,0.5,0.5,0.9v16.8c0,0.4-0.2,0.7-0.5,0.9C14,19.3,13.9,19.3,13.7,19.3z M1.5,12.5h5
                                        c0.2,0,0.4,0.1,0.6,0.2l5.6,3.8V3.4L7.1,7.1C6.9,7.2,6.7,7.3,6.5,7.3h-5V12.5z" class="st0" fill="#ACADAF"></path></g><g data-v-7a073fd5="" id="Path_30737" fill="#ACADAF"><path data-v-7a073fd5="" d="M16.8,15.1c-0.3,0-0.5-0.1-0.7-0.3c-0.4-0.4-0.4-1,0-1.4c0,0,0,0,0,0c1.9-2,1.9-5.1-0.1-7
                                        c-0.4-0.4-0.4-1,0-1.4c0.4-0.4,1-0.4,1.4,0c2.8,2.7,2.8,7.1,0.1,9.9c0,0-0.1,0.1-0.1,0.1C17.2,15,17,15.1,16.8,15.1z" class="st0" fill="#ACADAF"></path></g></g></svg>