<svg width="46" height="29" viewBox="0 0 46 29" fill="none" xmlns="http://www.w3.org/2000/svg">
<g clip-path="url(#clip0_47_2)">
<path d="M42 0H4C1.79086 0 0 1.79086 0 4V25C0 27.2091 1.79086 29 4 29H42C44.2091 29 46 27.2091 46 25V4C46 1.79086 44.2091 0 42 0Z" fill="#0093E9"/>
<path d="M31.4171 13.42H16.7251V12.084H29.8041L25.7971 8.077L26.7421 7.133L31.8891 12.28C31.9824 12.3734 32.0459 12.4924 32.0716 12.6219C32.0973 12.7514 32.0841 12.8856 32.0336 13.0075C31.9831 13.1295 31.8976 13.2338 31.7879 13.3072C31.6781 13.3806 31.5491 13.4199 31.4171 13.42Z" fill="white" stroke="white"/>
<path d="M22.0671 22.378L16.9251 17.231C16.832 17.1378 16.7686 17.0192 16.7427 16.8901C16.7169 16.761 16.7298 16.6271 16.7798 16.5053C16.8298 16.3835 16.9147 16.2792 17.0238 16.2055C17.1329 16.1317 17.2614 16.0919 17.3931 16.091H32.0841V17.427H19.0051L23.0121 21.434L22.0671 22.378Z" fill="white" stroke="white"/>
</g>
<defs>
<clipPath id="clip0_47_2">
<rect width="46" height="29" fill="white"/>
</clipPath>
</defs>
</svg>
