<svg xmlns:xlink="http://www.w3.org/1999/xlink" data-v-0261f4c4="" xmlns="http://www.w3.org/2000/svg" viewBox="0 0 48.361 36" width="48.361"  height="36" ><path data-v-0261f4c4="" id="del" fill="#FFFFFF" d="M29.4,19.7,35.6,26l1.7-1.7L31.1,18l6.3-6.3L35.6,10l-6.3,6.3L23.1,10l-1.7,1.7L27.6,18l-6.3,6.3L23.1,26l6.3-6.3ZM39.9,3.2a5.3,5.3,0,0,1,5.4,5.3v19a5.3,5.3,0,0,1-5.4,5.3h-20A5.4,5.4,0,0,1,16,31.2L3.5,18.8a1,1,0,0,1,0-1.5L16,4.8a5.4,5.4,0,0,1,3.9-1.6h20Zm0-3.2H20.7a8.6,8.6,0,0,0-6.2,2.6L1.3,15a4.2,4.2,0,0,0,0,6L14.6,33.4A8.6,8.6,0,0,0,20.7,36H39.9a8.5,8.5,0,0,0,8.5-8.5V8.5A8.5,8.5,0,0,0,39.9,0Z" transform="translate(-0.039)" class="cls-1"></path></svg>