<svg xmlns:xlink="http://www.w3.org/1999/xlink" data-v-64e012c6="" xmlns="http://www.w3.org/2000/svg" width="82.083" height="82.104" viewBox="0 0 82.083 82.104"><g data-v-64e012c6="" id="conversion" transform="translate(82.091 41.045) rotate(135)" opacity="0.2"><path data-v-64e012c6="" id="Path_26243" data-name="Path 26243" d="M54.414,25.393H3.628A3.427,3.427,0,0,1,0,21.766a3.427,3.427,0,0,1,3.628-3.628h42.08L33.737,6.167a3.507,3.507,0,0,1,0-5.079,3.507,3.507,0,0,1,5.079,0L56.953,19.226a3.311,3.311,0,0,1,.726,3.99A3.486,3.486,0,0,1,54.414,25.393Z" transform="translate(0.011 0)" fill="#FFFFFF"></path><path data-v-64e012c6="" id="Path_26244" data-name="Path 26244" d="M21.776,34.393A3.293,3.293,0,0,1,19.237,33.3L1.1,15.167a3.311,3.311,0,0,1-.726-3.99A3.486,3.486,0,0,1,3.638,9H54.425a3.427,3.427,0,0,1,3.628,3.628,3.427,3.427,0,0,1-3.628,3.628H12.345L24.316,28.226a3.507,3.507,0,0,1,0,5.079A3.293,3.293,0,0,1,21.776,34.393Z" transform="translate(0 23.649)" fill="#FFFFFF"></path></g></svg>