<svg xmlns:xlink="http://www.w3.org/1999/xlink" version="1.1" class="highcharts-root" style="font-family:&quot;Lucida Grande&quot;, &quot;Lucida Sans Unicode&quot;, Arial, Helvetica, sans-serif;font-size:12px;" xmlns="http://www.w3.org/2000/svg" width="176" height="88" viewBox="0 0 176 88"><desc>Created with Highcharts 8.2.2</desc><defs><clipPath id="highcharts-cglfmap-8-"><rect x="0" y="0" width="176" height="88" fill="none"></rect></clipPath><linearGradient x1="1" y1="0" x2="0" y2="0" id="highcharts-cglfmap-9"><stop offset="0" stop-color="#fff" stop-opacity="1"></stop><stop offset="1" stop-color="#000" stop-opacity="1"></stop></linearGradient><linearGradient x1="1" y1="0" x2="0" y2="0" id="highcharts-cglfmap-9"><stop offset="0" stop-color="#fff" stop-opacity="1"></stop><stop offset="1" stop-color="#000" stop-opacity="1"></stop></linearGradient></defs><rect fill="#000000" class="highcharts-background" x="0" y="0" width="176" height="88" rx="0" ry="0" fill-opacity="0"></rect><rect fill="none" class="highcharts-plot-background" x="0" y="0" width="176" height="88"></rect><g class="highcharts-pane-group" data-z-index="0"></g><g class="highcharts-grid highcharts-yaxis-grid" data-z-index="1"><path fill="none" class="highcharts-minor-grid-line" d="M 88 92.4 L 0 92.39999999999999" opacity="1"></path><path fill="none" class="highcharts-minor-grid-line" d="M 88 92.4 L 1.3369177349256915 77.11896036531014" opacity="1"></path><path fill="none" class="highcharts-minor-grid-line" d="M 88 92.4 L 5.307049370840062 62.30222738734115" opacity="1"></path><path fill="none" class="highcharts-minor-grid-line" d="M 88 92.4 L 11.789764466969388 48.40000000000001" opacity="1"></path><path fill="none" class="highcharts-minor-grid-line" d="M 88 92.4 L 20.58808900552995 35.834690347584534" opacity="1"></path><path fill="none" class="highcharts-minor-grid-line" d="M 88 92.4 L 31.434690347584535 24.988089005529943" opacity="1"></path><path fill="none" class="highcharts-minor-grid-line" d="M 88 92.4 L 43.99999999999998 16.18976446696942" opacity="1"></path><path fill="none" class="highcharts-minor-grid-line" d="M 88 92.4 L 57.902227387341156 9.707049370840068" opacity="1"></path><path fill="none" class="highcharts-minor-grid-line" d="M 88 92.4 L 72.71896036531014 5.736917734925697" opacity="1"></path><path fill="none" class="highcharts-minor-grid-line" d="M 88 92.4 L 88 4.400000000000006" opacity="1"></path><path fill="none" class="highcharts-minor-grid-line" d="M 88 92.4 L 103.28103963468988 5.736917734925697" opacity="1"></path><path fill="none" class="highcharts-minor-grid-line" d="M 88 92.4 L 118.09777261265886 9.707049370840068" opacity="1"></path><path fill="none" class="highcharts-minor-grid-line" d="M 88 92.4 L 132 16.189764466969393" opacity="1"></path><path fill="none" class="highcharts-minor-grid-line" d="M 88 92.4 L 144.56530965241546 24.988089005529957" opacity="1"></path><path fill="none" class="highcharts-minor-grid-line" d="M 88 92.4 L 155.41191099447008 35.83469034758454" opacity="1"></path><path fill="none" class="highcharts-minor-grid-line" d="M 88 92.4 L 164.2102355330306 48.40000000000002" opacity="1"></path><path fill="none" class="highcharts-minor-grid-line" d="M 88 92.4 L 170.69295062915995 62.302227387341155" opacity="1"></path><path fill="none" class="highcharts-minor-grid-line" d="M 88 92.4 L 174.6630822650743 77.11896036531016" opacity="1"></path><path fill="none" class="highcharts-minor-grid-line" d="M 88 92.4 L 176 92.4" opacity="1"></path><path fill="none" data-z-index="1" class="highcharts-grid-line" d="M 88 92.4 L 20.58808900552995 35.834690347584534" opacity="1"></path><path fill="none" data-z-index="1" class="highcharts-grid-line" d="M 88 92.4 L 88 4.400000000000006" opacity="1"></path><path fill="none" data-z-index="1" class="highcharts-grid-line" d="M 88 92.4 L 155.41191099447008 35.83469034758454" opacity="1"></path></g><rect fill="none" class="highcharts-plot-border" data-z-index="1" x="0" y="0" width="176" height="88"></rect><g class="highcharts-axis highcharts-yaxis" data-z-index="2"><path fill="none" class="highcharts-minor-tick" stroke="#000000" stroke-width="1" d="M 0 92.39999999999999 L -10 92.39999999999999" opacity="1" stroke-opacity="0"></path><path fill="none" class="highcharts-minor-tick" stroke="#000000" stroke-width="1" d="M 1.3369177349256915 77.11896036531014 L -8.511159795196392 75.38247858864084" opacity="1" stroke-opacity="0"></path><path fill="none" class="highcharts-minor-tick" stroke="#000000" stroke-width="1" d="M 5.307049370840062 62.30222738734115 L -4.08987683701902 58.882025954084455" opacity="1" stroke-opacity="0"></path><path fill="none" class="highcharts-minor-tick" stroke="#000000" stroke-width="1" d="M 11.789764466969388 48.40000000000001 L 3.1295104291250055 43.40000000000001" opacity="1" stroke-opacity="0"></path><path fill="none" class="highcharts-minor-tick" stroke="#000000" stroke-width="1" d="M 20.58808900552995 35.834690347584534 L 12.927644574340164 29.406814250719137" opacity="1" stroke-opacity="0"></path><path fill="none" class="highcharts-minor-tick" stroke="#000000" stroke-width="1" d="M 31.434690347584535 24.988089005529943 L 25.006814250719145 17.327644574340155" opacity="1" stroke-opacity="0"></path><path fill="none" class="highcharts-minor-tick" stroke="#000000" stroke-width="1" d="M 43.99999999999998 16.18976446696942 L 38.99999999999998 7.52951042912504" opacity="1" stroke-opacity="0"></path><path fill="none" class="highcharts-minor-tick" stroke="#000000" stroke-width="1" d="M 57.902227387341156 9.707049370840068 L 54.48202595408446 0.31012316298098597" opacity="1" stroke-opacity="0"></path><path fill="none" class="highcharts-minor-tick" stroke="#000000" stroke-width="1" d="M 72.71896036531014 5.736917734925697 L 70.98247858864083 -4.111159795196386" opacity="1" stroke-opacity="0"></path><path fill="none" class="highcharts-minor-tick" stroke="#000000" stroke-width="1" d="M 88 4.400000000000006 L 88 -5.599999999999994" opacity="1" stroke-opacity="0"></path><path fill="none" class="highcharts-minor-tick" stroke="#000000" stroke-width="1" d="M 103.28103963468988 5.736917734925697 L 105.01752141135918 -4.111159795196386" opacity="1" stroke-opacity="0"></path><path fill="none" class="highcharts-minor-tick" stroke="#000000" stroke-width="1" d="M 118.09777261265886 9.707049370840068 L 121.51797404591554 0.31012316298098597" opacity="1" stroke-opacity="0"></path><path fill="none" class="highcharts-minor-tick" stroke="#000000" stroke-width="1" d="M 132 16.189764466969393 L 137 7.529510429125011" opacity="1" stroke-opacity="0"></path><path fill="none" class="highcharts-minor-tick" stroke="#000000" stroke-width="1" d="M 144.56530965241546 24.988089005529957 L 150.99318574928088 17.32764457434017" opacity="1" stroke-opacity="0"></path><path fill="none" class="highcharts-minor-tick" stroke="#000000" stroke-width="1" d="M 155.41191099447008 35.83469034758454 L 163.07235542565985 29.40681425071915" opacity="1" stroke-opacity="0"></path><path fill="none" class="highcharts-minor-tick" stroke="#000000" stroke-width="1" d="M 164.2102355330306 48.40000000000002 L 172.870489570875 43.40000000000002" opacity="1" stroke-opacity="0"></path><path fill="none" class="highcharts-minor-tick" stroke="#000000" stroke-width="1" d="M 170.69295062915995 62.302227387341155 L 180.089876837019 58.88202595408447" opacity="1" stroke-opacity="0"></path><path fill="none" class="highcharts-minor-tick" stroke="#000000" stroke-width="1" d="M 174.6630822650743 77.11896036531016 L 184.5111597951964 75.38247858864085" opacity="1" stroke-opacity="0"></path><path fill="none" class="highcharts-minor-tick" stroke="#000000" stroke-width="1" d="M 176 92.4 L 186 92.4" opacity="1" stroke-opacity="0"></path><path fill="none" class="highcharts-tick" stroke="#000000" stroke-width="2px" d="M 20.58808900552995 35.834690347584534 L 12.927644574340164 29.406814250719137" opacity="1" stroke-opacity="0"></path><path fill="none" class="highcharts-tick" stroke="#000000" stroke-width="2px" d="M 88 4.400000000000006 L 88 -5.599999999999994" opacity="1" stroke-opacity="0"></path><path fill="none" class="highcharts-tick" stroke="#000000" stroke-width="2px" d="M 155.41191099447008 35.83469034758454 L 163.07235542565985 29.40681425071915" opacity="1" stroke-opacity="0"></path><path fill="none" class="highcharts-axis-line" stroke="#000000" stroke-width="1" data-z-index="7" d="M 0 92.39999999999999 A 88 88 0 0 1 175.99995600000366 92.31200001466667 M 88 92.4 A 0 0 0 0 0 88 92.4" stroke-opacity="0"></path></g><g class="highcharts-series-group" data-z-index="3"><g class="highcharts-series highcharts-series-0 highcharts-gauge-series highcharts-color-0 highcharts-tracker" data-z-index="0.1" opacity="1" transform="translate(0,0) scale(1 1)" clip-path="url(#highcharts-cglfmap-8-)"><path fill="url(&quot;#highcharts-cglfmap-9&quot;)" d="M 0 -3 L 0.748 -3 L 74.8 -1.5 L 74.8 1.5 L 0.748 3 L 0 3 Z" transform="translate(88,92.4) rotate(-92.97787499999998 0 0)" data-z-index="1" class="highcharts-dial"></path><circle cx="0" cy="0" r="5" data-z-index="2" class="highcharts-pivot" transform="translate(88,92.4)" fill="#000000"></circle></g><g class="highcharts-markers highcharts-series-0 highcharts-gauge-series highcharts-color-0" data-z-index="0.1" opacity="1" transform="translate(0,0) scale(1 1)" clip-path="none"></g></g><text x="88" text-anchor="middle" class="highcharts-title" data-z-index="4" style="color: rgb(51, 51, 51); font-size: 18px;" y="14" fill="#333333"></text><text x="88" text-anchor="middle" class="highcharts-subtitle" data-z-index="4" style="color: rgb(102, 102, 102);" y="14" fill="#666666"></text><text x="0" text-anchor="start" class="highcharts-caption" data-z-index="4" style="color: rgb(102, 102, 102);" y="100" fill="#666666"></text><g class="highcharts-legend" data-z-index="7"><rect fill="none" class="highcharts-legend-box" rx="0" ry="0" x="0" y="0" width="8" height="8" visibility="hidden"></rect><g data-z-index="1"><g></g></g></g><g class="highcharts-axis-labels highcharts-yaxis-labels" data-z-index="7"><text x="20.58808900552995" style="color: rgba(0, 0, 0, 0); cursor: default; font-size: 11px;" text-anchor="middle" transform="translate(0,0) rotate(-49.99999999999999 20.58808900552995 35.834690347584534)" y="35.834690347584534" opacity="1" fill-opacity="0" fill="#000000">-50</text><text x="88" style="color: rgba(0, 0, 0, 0); cursor: default; font-size: 11px;" text-anchor="middle" transform="translate(0,0)" y="4.400000000000006" opacity="1" fill-opacity="0" fill="#000000">0</text><text x="155.41191099447008" style="color: rgba(0, 0, 0, 0); cursor: default; font-size: 11px;" text-anchor="middle" transform="translate(0,0) rotate(49.99999999999999 155.41191099447008 35.83469034758454)" y="35.83469034758454" opacity="1" fill-opacity="0" fill="#000000">50</text></g></svg>