<svg xmlns:xlink="http://www.w3.org/1999/xlink" xmlns="http://www.w3.org/2000/svg" width="16.545" height="18" viewBox="0 0 16.545 18" class="icon2"><g id="bell" transform="translate(0.5 0.5)"><path id="Path_35098" data-name="Path 35098" d="M18.393,11.572A3.536,3.536,0,0,1,17.24,8.963V6.712A5.884,5.884,0,0,0,11.472,1,5.913,5.913,0,0,0,5.7,6.767v2.2a3.536,3.536,0,0,1-1.153,2.609A2.488,2.488,0,0,0,3.7,13.247c0,1.51,3.131,2.526,7.772,2.526s7.772-1.016,7.772-2.526A2.547,2.547,0,0,0,18.393,11.572Z" transform="translate(-3.7 -1)" fill="none" stroke="#FFFFFF" stroke-width="1"></path><path id="Path_35099" data-name="Path 35099" d="M25.619,56.51A22.364,22.364,0,0,1,23.2,56.4a2.491,2.491,0,0,0,2.419,1.787A2.524,2.524,0,0,0,28.038,56.4,22.364,22.364,0,0,1,25.619,56.51Z" transform="translate(-17.847 -41.187)" fill="none" stroke="#FFFFFF" stroke-width="1"></path></g></svg>