<svg xmlns:xlink="http://www.w3.org/1999/xlink" data-v-3162dcc5="" xmlns="http://www.w3.org/2000/svg" width="22" height="22" viewBox="0 0 22 22" class="colorSecondary"><g data-v-3162dcc5="" id="c-question" transform="translate(3.068 -8.774)"><g data-v-3162dcc5="" id="Ellipse_1825" data-name="Ellipse 1825" transform="translate(-2.068 9.774)" fill="none" stroke="#FFFFFF" stroke-linecap="square" stroke-miterlimit="10" stroke-width="1"><circle data-v-3162dcc5="" cx="10" cy="10" r="10" stroke="none" fill="none"></circle><circle data-v-3162dcc5="" cx="10" cy="10" r="10.5" fill="none" stroke="#FFFFFF"></circle></g><g data-v-3162dcc5="" id="question" transform="translate(3.497 13.43)"><path data-v-3162dcc5="" id="Path_30768" data-name="Path 30768" d="M8.359,10.774a4.349,4.349,0,0,1,.4-2.323,5.026,5.026,0,0,1,1.4-1.421c1.317-.981,1.876-1.491,1.876-2.54,0-1.166-.924-1.637-2.166-1.637a7.306,7.306,0,0,0-3.334.866L5.694,2.063A9.2,9.2,0,0,1,10.035,1a4.89,4.89,0,0,1,3.1.9A3,3,0,0,1,14.287,4.4,3.24,3.24,0,0,1,13.4,6.7,10.58,10.58,0,0,1,11.872,8,5.71,5.71,0,0,0,10.63,9.137a2.68,2.68,0,0,0-.315,1.637H8.359Z" transform="translate(-5.694 -1)" fill="#FFFFFF"></path><ellipse data-v-3162dcc5="" id="Ellipse_1827" data-name="Ellipse 1827" cx="1.363" cy="1.284" rx="1.363" ry="1.284" transform="translate(2.252 11.56)" fill="#FFFFFF"></ellipse></g></g></svg>