
<svg xmlns="http://www.w3.org/2000/svg" width="444" height="232" viewBox="0 0 444 232">
  <g id="Group_22785" data-name="Group 22785" transform="translate(-442 -220)">
    <g id="Group_22436" data-name="Group 22436" transform="translate(17543.334 -4344)">
      <g id="Group_22432" data-name="Group 22432" transform="translate(-17101 4564.084)">
        <g id="Group_14959" data-name="Group 14959" transform="translate(-0.334 -0.084)">
          <g id="Group_14954" data-name="Group 14954" transform="translate(0 10.226)">
            <path id="Path_31688" data-name="Path 31688" d="M5612.27,1806.245l22.1-19.9h40.6l16.306,14.7h72.611l11.8-10.639h68.832l9.465,8.533h48.792s10.271-8.6,13.48-12.153c6.543-.079,83.473,0,83.473,0l22.027,19.857v71.074l-14.1,12.712v42.69l14.1,12.712v38.075l-18.347,16.539H5885.168l-18.346-16.539h-85.657l-19.277,17.377s-137.741.023-144.627,0c-17.227-15.53-17.365-15.655-17.365-15.655V1911.6l12.374-11.155Z" transform="translate(-5591.163 -1786.345)" fill="#011022" stroke="#e5b000" stroke-width="2"/>
            <g id="Group_14953" data-name="Group 14953" transform="translate(0 24.774)">
              <path id="Path_31689" data-name="Path 31689" d="M5116.342,1804.6v76.055l-7.678,6.5" transform="translate(-5103.758 -1798.057)" fill="none" stroke="#e5b000" stroke-width="0.7"/>
              <circle id="Ellipse_1846" data-name="Ellipse 1846" cx="4" cy="4" r="4" transform="translate(9 0)" fill="#e5b000"/>
              <ellipse id="Ellipse_1847" data-name="Ellipse 1847" cx="4.5" cy="3.5" rx="4.5" ry="3.5" transform="translate(0 84)" fill="#e5b000"/>
            </g>
          </g>
          <g id="Group_14955" data-name="Group 14955" transform="translate(89 6)">
            <path id="Path_31690" data-name="Path 31690" d="M5226.046,1784.973l10.892,10.892h54.215" transform="translate(-5220.546 -1780.989)" fill="none" stroke="#e5b000" stroke-width="0.7"/>
            <ellipse id="Ellipse_1848" data-name="Ellipse 1848" cx="4" cy="3.5" rx="4" ry="3.5" transform="translate(0.001 0)" fill="#e5b000"/>
            <ellipse id="Ellipse_1849" data-name="Ellipse 1849" cx="5" cy="5.5" rx="5" ry="5.5" transform="translate(65.001 9)" fill="#e5b000"/>
          </g>
          <g id="Group_14956" data-name="Group 14956" transform="translate(334 0)">
            <path id="Path_31691" data-name="Path 31691" d="M5367.7,1782.907h76.632l23.518,23.517v30.356" transform="translate(-5362.585 -1780.046)" fill="none" stroke="#e5b000" stroke-width="0.7"/>
            <circle id="Ellipse_1850" data-name="Ellipse 1850" cx="3.5" cy="3.5" r="3.5" transform="translate(0 0)" fill="#e5b000"/>
            <circle id="Ellipse_1851" data-name="Ellipse 1851" cx="4.5" cy="4.5" r="4.5" transform="translate(101 51)" fill="#e5b000"/>
          </g>
          <g id="Group_14958" data-name="Group 14958" transform="translate(424.001 107.736)">
            <path id="Path_31692" data-name="Path 31692" d="M5426.051,1852.163l-5.276,4.733v35.9l13.441,12.058v44.633l-10.36,9.294" transform="translate(-5418.962 -1846.862)" fill="none" stroke="#e5b000" stroke-width="0.7"/>
            <ellipse id="Ellipse_1852" data-name="Ellipse 1852" cx="4" cy="3" rx="4" ry="3" transform="translate(5.999 0.263)" fill="#e5b000"/>
            <circle id="Ellipse_1853" data-name="Ellipse 1853" cx="3.5" cy="3.5" r="3.5" transform="translate(-0.001 109.263)" fill="#e5b000"/>
          </g>
          <g id="Group_14957" data-name="Group 14957" transform="translate(176.001 212.251)">
            <path id="Path_31693" data-name="Path 31693" d="M5276.56,1931.964l14.3-14.3h26.077l9.786,9.785H5369.3" transform="translate(-5272.118 -1917.661)" fill="none" stroke="#e5b000" stroke-width="0.7"/>
            <ellipse id="Ellipse_1854" data-name="Ellipse 1854" cx="3.5" cy="3" rx="3.5" ry="3" transform="translate(0 13.749)" fill="#e5b000"/>
            <ellipse id="Ellipse_1855" data-name="Ellipse 1855" cx="4" cy="3" rx="4" ry="3" transform="translate(92 7.749)" fill="#e5b000"/>
          </g>
        </g>
      </g>
    </g>
  </g>
</svg>
